<?xml version="1.0" encoding="UTF-8"?>
<!DOCTYPE svg PUBLIC "-//W3C//DTD SVG 1.1//EN" "http://www.w3.org/Graphics/SVG/1.1/DTD/svg11.dtd">
<svg xmlns="http://www.w3.org/2000/svg" version="1.1" width="512px" height="512px" style="shape-rendering:geometricPrecision; text-rendering:geometricPrecision; image-rendering:optimizeQuality; fill-rule:evenodd; clip-rule:evenodd" xmlns:xlink="http://www.w3.org/1999/xlink">
<g><path style="opacity:0.987" fill="#f9c55c" d="M 252.5,12.5 C 255.365,12.0548 257.865,12.7215 260,14.5C 260.667,31.8333 260.667,49.1667 260,66.5C 257,69.1667 254,69.1667 251,66.5C 250.333,49.1667 250.333,31.8333 251,14.5C 251.717,13.9558 252.217,13.2891 252.5,12.5 Z"/></g>
<g><path style="opacity:0.97" fill="#f9c55b" d="M 115.5,69.5 C 117.308,69.4914 118.975,69.9914 120.5,71C 131.333,81.8333 142.167,92.6667 153,103.5C 155.045,106.719 154.545,109.552 151.5,112C 149.029,112.706 146.695,112.373 144.5,111C 134,100.5 123.5,90 113,79.5C 110.712,75.3178 111.545,71.9844 115.5,69.5 Z"/></g>
<g><path style="opacity:0.969" fill="#f9c45c" d="M 392.5,69.5 C 398.771,70.374 400.604,73.7073 398,79.5C 387.5,90 377,100.5 366.5,111C 361.438,113.859 358.104,112.526 356.5,107C 367.653,93.6801 379.653,81.1801 392.5,69.5 Z"/></g>
<g><path style="opacity:0.993" fill="#fbdc71" d="M 316.5,372.5 C 297.833,372.5 279.167,372.5 260.5,372.5C 260.5,345.833 260.5,319.167 260.5,292.5C 264.803,293.204 268.303,291.87 271,288.5C 272.026,283.215 272.693,277.882 273,272.5C 275.017,267.076 278.85,265.242 284.5,267C 288.953,271.636 294.12,275.136 300,277.5C 308.178,273.994 314.511,268.327 319,260.5C 319.667,258.5 319.667,256.5 319,254.5C 316,250.833 313,247.167 310,243.5C 307.144,238.08 308.311,233.913 313.5,231C 317.167,230.667 320.833,230.333 324.5,230C 333.646,228.304 336.979,222.804 334.5,213.5C 334.333,209.833 334.167,206.167 334,202.5C 332.52,199.337 330.02,197.504 326.5,197C 322.167,196.667 317.833,196.333 313.5,196C 308.776,193.565 307.276,189.731 309,184.5C 313.636,180.047 317.136,174.88 319.5,169C 315.616,159.615 308.949,153.115 299.5,149.5C 293.866,151.947 288.866,155.447 284.5,160C 279.269,161.724 275.435,160.224 273,155.5C 272.725,149.68 271.725,144.013 270,138.5C 268.786,136.951 267.286,135.785 265.5,135C 258.5,134.333 251.5,134.333 244.5,135C 241.619,136.251 239.786,138.417 239,141.5C 239.367,163.03 231.867,166.53 216.5,152C 213.298,150.517 209.964,150.183 206.5,151C 199.834,155.697 194.834,161.697 191.5,169C 191.796,170.888 192.296,172.722 193,174.5C 196,178.167 199,181.833 202,185.5C 203.378,189.898 202.212,193.398 198.5,196C 192.386,196.513 186.386,197.513 180.5,199C 179.333,200.167 178.167,201.333 177,202.5C 176.333,209.833 176.333,217.167 177,224.5C 177.785,226.286 178.951,227.786 180.5,229C 185.386,230.224 190.386,230.891 195.5,231C 201.653,232.465 203.82,236.298 202,242.5C 198.425,246.653 195.091,250.986 192,255.5C 191.242,259.329 192.242,262.662 195,265.5C 199.279,271.14 204.613,275.14 211,277.5C 212.967,277.458 214.801,276.958 216.5,276C 232.193,260.924 240.026,264.424 240,286.5C 241.728,291.451 245.228,293.451 250.5,292.5C 250.5,319.167 250.5,345.833 250.5,372.5C 231.833,372.5 213.167,372.5 194.5,372.5C 194.756,351.189 189.256,331.522 178,313.5C 169.753,302.007 161.753,290.34 154,278.5C 136.504,243.649 133.837,207.649 146,170.5C 165.565,120.778 202.065,94.4445 255.5,91.5C 308.935,94.4445 345.435,120.778 365,170.5C 377.163,207.649 374.496,243.649 357,278.5C 349.247,290.34 341.247,302.007 333,313.5C 321.743,331.525 316.243,351.192 316.5,372.5 Z"/></g>
<g><path style="opacity:1" fill="#f9c55c" d="M 260.5,372.5 C 257.167,372.5 253.833,372.5 250.5,372.5C 250.5,345.833 250.5,319.167 250.5,292.5C 245.228,293.451 241.728,291.451 240,286.5C 240.026,264.424 232.193,260.924 216.5,276C 214.801,276.958 212.967,277.458 211,277.5C 204.613,275.14 199.279,271.14 195,265.5C 192.242,262.662 191.242,259.329 192,255.5C 195.091,250.986 198.425,246.653 202,242.5C 203.82,236.298 201.653,232.465 195.5,231C 190.386,230.891 185.386,230.224 180.5,229C 178.951,227.786 177.785,226.286 177,224.5C 176.333,217.167 176.333,209.833 177,202.5C 178.167,201.333 179.333,200.167 180.5,199C 186.386,197.513 192.386,196.513 198.5,196C 202.212,193.398 203.378,189.898 202,185.5C 199,181.833 196,178.167 193,174.5C 192.296,172.722 191.796,170.888 191.5,169C 194.834,161.697 199.834,155.697 206.5,151C 209.964,150.183 213.298,150.517 216.5,152C 231.867,166.53 239.367,163.03 239,141.5C 239.786,138.417 241.619,136.251 244.5,135C 251.5,134.333 258.5,134.333 265.5,135C 267.286,135.785 268.786,136.951 270,138.5C 271.725,144.013 272.725,149.68 273,155.5C 275.435,160.224 279.269,161.724 284.5,160C 288.866,155.447 293.866,151.947 299.5,149.5C 308.949,153.115 315.616,159.615 319.5,169C 317.136,174.88 313.636,180.047 309,184.5C 307.276,189.731 308.776,193.565 313.5,196C 317.833,196.333 322.167,196.667 326.5,197C 330.02,197.504 332.52,199.337 334,202.5C 334.167,206.167 334.333,209.833 334.5,213.5C 336.979,222.804 333.646,228.304 324.5,230C 320.833,230.333 317.167,230.667 313.5,231C 308.311,233.913 307.144,238.08 310,243.5C 313,247.167 316,250.833 319,254.5C 319.667,256.5 319.667,258.5 319,260.5C 314.511,268.327 308.178,273.994 300,277.5C 294.12,275.136 288.953,271.636 284.5,267C 278.85,265.242 275.017,267.076 273,272.5C 272.693,277.882 272.026,283.215 271,288.5C 268.303,291.87 264.803,293.204 260.5,292.5C 260.5,319.167 260.5,345.833 260.5,372.5 Z"/></g>
<g><path style="opacity:1" fill="#fadc71" d="M 246.5,183.5 C 272.523,181.036 285.69,192.702 286,218.5C 280.079,239.049 266.579,247.215 245.5,243C 227.477,234.455 221.311,220.621 227,201.5C 231.163,192.832 237.663,186.832 246.5,183.5 Z"/></g>
<g><path style="opacity:0.971" fill="#f9c55c" d="M 56.5,208.5 C 73.5033,208.333 90.5033,208.5 107.5,209C 109.478,211.497 109.978,214.331 109,217.5C 108.25,218.126 107.416,218.626 106.5,219C 90.5,219.667 74.5,219.667 58.5,219C 54.0177,216.278 53.351,212.778 56.5,208.5 Z"/></g>
<g><path style="opacity:0.971" fill="#f9c55c" d="M 403.5,208.5 C 420.503,208.333 437.503,208.5 454.5,209C 457.592,213.118 456.925,216.451 452.5,219C 436.5,219.667 420.5,219.667 404.5,219C 402.09,218.242 401.09,216.575 401.5,214C 401.395,211.822 402.061,209.988 403.5,208.5 Z"/></g>
<g><path style="opacity:0.984" fill="#f9c55b" d="M 148.5,314.5 C 154.06,315.956 155.56,319.289 153,324.5C 142.5,335 132,345.5 121.5,356C 114.752,358.909 111.586,356.743 112,349.5C 123.783,337.213 135.95,325.546 148.5,314.5 Z"/></g>
<g><path style="opacity:0.972" fill="#f9c45c" d="M 361.5,314.5 C 362.766,315.09 364.099,315.59 365.5,316C 376.667,327.167 387.833,338.333 399,349.5C 399.414,356.743 396.248,358.909 389.5,356C 379,345.5 368.5,335 358,324.5C 355.546,319.762 356.713,316.429 361.5,314.5 Z"/></g>
<g><path style="opacity:1" fill="#b6c4ce" d="M 194.5,372.5 C 213.167,372.5 231.833,372.5 250.5,372.5C 253.833,372.5 257.167,372.5 260.5,372.5C 279.167,372.5 297.833,372.5 316.5,372.5C 316.831,396.339 316.498,420.006 315.5,443.5C 315.5,440.833 315.5,438.167 315.5,435.5C 275.5,435.5 235.5,435.5 195.5,435.5C 195.5,438.167 195.5,440.833 195.5,443.5C 194.502,420.006 194.169,396.339 194.5,372.5 Z"/></g>
<g><path style="opacity:1" fill="#9facb9" d="M 315.5,443.5 C 311.495,471.009 296.162,488.843 269.5,497C 236.624,501.98 213.124,489.48 199,459.5C 196.882,454.362 195.715,449.029 195.5,443.5C 195.5,440.833 195.5,438.167 195.5,435.5C 235.5,435.5 275.5,435.5 315.5,435.5C 315.5,438.167 315.5,440.833 315.5,443.5 Z"/></g>
</svg>
